<svg width="617" height="357" viewBox="0 0 617 357" fill="none" xmlns="http://www.w3.org/2000/svg">
<path d="M471 95L617 128.776V340L460 326.893L471 95Z" fill="#274E41"/>
<path d="M454.5 118.299L471 95L460 327H448L454.5 118.299Z" fill="#082221"/>
<path d="M180.5 0L234 25V299.5L206 315L176 309L180.5 0Z" fill="#082221"/>
<path d="M206 84C206 84 286.38 73.8492 335 80C383.62 86.1508 454.5 118 454.5 118L448 327L326 315H206V84Z" fill="#274E41"/>
<path d="M369 50.5L391 45V94L369 87.5V50.5Z" fill="#B38010"/>
<path d="M391 45L443 69.5V113.5L391 94V45Z" fill="#FFB612"/>
<path d="M0 76L8.5 68.5H30L78.5 36V28L87 17.5L102 15.5L109 28L130.5 20V11.5L180.5 0L176 309L0 356.5V76Z" fill="#203731"/>
<path d="M67 275.578V132.578L142.144 108V139.281L96.5 153.859V178.438L137.5 163.859V195.141L96.5 209.719V265.578L67 275.578Z" fill="white"/>
<path d="M61 271V128L136.144 103.422V134.703L90.5 149.281V173.859L131.5 159.281V190.563L90.5 205.141V261L61 271Z" fill="#FFB612"/>
<path d="M265 176.818V145H391.42V176.818H347.67V290.455H308.75V176.818H265Z" fill="white"/>
<path d="M265 169.818V138H391.42V169.818H347.67V283.455H308.75V169.818H265Z" fill="#FFB612"/>
<path d="M580.883 187L578.26 296.059L554.383 292L518.109 236.201L516.883 289L486.259 283.059L488.883 174L516.883 179.5L550.258 238.406L551.11 238.427L552.483 181.341L580.883 187Z" fill="white"/>
<path d="M585.5 181L582.877 290.059L559 286L522.726 230.201L521.5 283L490.877 277.059L493.5 168L521.5 173.5L554.875 232.406L555.727 232.427L557.1 175.341L585.5 181Z" fill="#FFB612"/>
<path d="M11 113.5L0 76L8.5 68.5H30L78.5 36V28L87 17.5L102 15.5L109 28L130.5 20V11.5L180.5 0L234 25V65L219 33L210.5 46L204.5 33L196 56L187 24L179.5 68.5L172 18.5L152 68.5L141 24L132 46L126.5 37.5L121 65L116.5 33L105 91L96.5 46L83 113.5L70.5 77.5V107.5L48 68.5L41.5 107.5L33.5 84.5L25.5 140L11 91V113.5Z" fill="#E3F0F3"/>
<path d="M215.5 171.5L212 133L206 162.5V84C206 84 282.424 74.3621 331 79.5C383 85 454.5 118 454.5 118L452.5 185.5L440 127L428.5 178.5L406.5 111L404 140L390.5 115L383 131.5L373 101.5L364 131.5L349.5 95.5L338 118L334 101.5L326 131.5L322 93L316 127L299.5 86.5L295.5 105.5L290 89.5L285 127L266 93L256.5 124L248.5 99L233.5 144L227 124L215.5 171.5Z" fill="#E6F3F5"/>
<path d="M369 60V50.5L391 45L443 69.5V73L441.5 76L440.5 72L439 90L438 70.5L437 73V70L434.5 81.5L433.5 69L432 74V69L431 71.5L430.5 69L429.5 74L429 67.5L427 81.5L425 65L423 70L422 64L419 81.5L415 62L412 66L410.5 61L407.5 70.5L408 59L402.5 72L403 58L401 64L399 58L396 71.5L392.5 50.5L391 59L389.5 51.5L387 62.5L385.5 50L385 56L384.5 54L382 73L379.5 51L378.5 56.5L377 51L374.5 65.5L371 54.5L369 60Z" fill="#E6F3F5"/>
<path d="M459 156.5L454.5 118L471 95L617 128.5V157L610 136.5L602 172L592.5 136.5L584.5 159.5L580 132L573.5 144L570.5 132L566 148L559 128.5L549 172L541.5 136.5L535 159.5L527.5 120.5L520.5 136.5L517.5 117.5L504.5 159.5L498 125.5L485.5 148L479.5 110L469 136.5L466 120.5L459 156.5Z" fill="#E3F0F3"/>
</svg>
